<svg xmlns="http://www.w3.org/2000/svg" width="56" height="52.7" viewBox="0 0 56 52.7"><g fill-rule="evenodd" clip-rule="evenodd"><path d="M21.4 5.9C26.1-1.5 34.4-1 38.9 3c4.4 3.9 5.9 12.2-.9 17.8 2.8 1.5 4.5 3.8 4.7 7.2.5-.2.9-.3 1.3-.4 3.3-1.3 6.5-2.5 9.8-3.8 1.5-.6 2.2-.1 2.2 1.5v22.5c0 1.6-.8 2-2.2 1.5-3.1-1.2-6.2-2.4-9.4-3.6-.5-.2-1-.4-1.5-.5-.1.2-.2.3-.3.4-.9 4.8-3.8 7.3-8.7 7.3H8.6c-5.3 0-8.6-3.3-8.6-8.6 0-4.8.1-9.7 0-14.5-.1-3.9 1.1-7 4.8-8.9C1.4 17.9-.3 14.4.2 10 .5 7 2 4.5 4.3 2.6 9.6-1.8 16.1-.6 21.4 5.9zm11.3 44c5 .5 7.3-1.6 7.3-6.4V28.3c0-3.4-2.1-5.6-5.6-5.6H8.2c-3.3 0-5.5 2.1-5.5 5.5-.1 5.4-.1 10.8 0 16.3.1 4 3.3 6.3 7.3 5.3v-4.4c0-1 .1-2 1.4-2 1.2 0 1.3 1 1.3 1.9v4.6H20v-4.7c0-1 .2-1.8 1.3-1.8s1.4.8 1.4 1.8V50H30v-4.7c0-1 .1-1.9 1.3-1.9 1.1 0 1.4.9 1.4 1.9v4.6zM40 11.4c0-4.8-3.9-8.7-8.6-8.7-4.7 0-8.6 3.9-8.6 8.7 0 4.8 3.9 8.7 8.7 8.7 4.6-.1 8.5-3.9 8.5-8.7zm-37.3 0c0 4.8 3.9 8.7 8.6 8.7 4.7 0 8.7-3.9 8.7-8.6 0-4.7-3.9-8.7-8.6-8.7-4.8-.1-8.7 3.8-8.7 8.6zm50.5 15.3c-3.4 1.3-6.7 2.6-9.9 3.9-.3.1-.6.6-.6.9v9.7c0 .3.3.8.5.9 3.3 1.3 6.6 2.6 10 3.9V26.7zM19 20h4.8c-.9-1.1-1.6-2-2.4-3-.8.9-1.6 1.8-2.4 3z"/><path fill="#FFF" d="M19 20c.9-1.1 1.6-2.1 2.4-3 .8 1 1.5 1.9 2.4 3H19z"/><path d="M21.2 36.1H8.9c-1.9 0-2.2-.3-2.2-2.2v-5.3c0-1.2.6-1.8 1.8-1.8h25.7c1.2 0 1.8.5 1.8 1.8v5.6c0 1.4-.6 2-1.9 2-4.3-.2-8.6-.1-12.9-.1zm12.1-6.6H9.5v3.8h23.8v-3.8z"/></g></svg>