<svg xmlns="http://www.w3.org/2000/svg" width="1414" height="176.3" viewBox="0 0 1414 176.3"><path fill="#FFF" stroke="#000" stroke-width="4" stroke-miterlimit="10" d="M2 117.6c0-32.9 20.9-31.1 20.9-31.1C22.9 31.6 80 52.9 80 52.9c55.9-99 156.3-32.1 156.5 20.5 59.2-24.5 74.6 44.3 74.6 44.3H136.7"/><g fill="none" stroke-width="5" stroke-linecap="round" stroke-linejoin="round" stroke-miterlimit="10"><g stroke="#050505"><path d="M1379.6 121.4s15.5-2.9 16-19.7M1411.5 121.4s-15.5-2.9-16-19.7M1411.5 121.4s-15.5 2.9-16 19.7M1379.6 121.4s15.5 2.9 16 19.7"/></g><g stroke="#000"><path d="M1185.7 119.6h57.9M1257.6 119.6h37.7M1309.2 119.6h23.2M1345.8 119.6h14.5"/></g></g><g stroke="#000" stroke-width="4" stroke-linejoin="round" stroke-miterlimit="10"><path fill="#FFF" d="M330.1 174.3H198.3s-3.4-19.3 16.7-14.1c-5.8-13.2 15.3-27.7 26-12.6-.9-12.6 19.4-31.2 39.4-10.4.1-26.7 51.1-60.7 79.5-10.4 0 0 29-10.8 29 17.1 0 0 10.6-.9 10.6 15.8h-96"/><path fill="none" d="M420.2 159.5h66.3M509.4 159.5h33.1"/></g></svg>