<svg xmlns="http://www.w3.org/2000/svg" width="1122.3" height="184.1" viewBox="0 0 1122.3 184.1"><g stroke="#000" stroke-width="4" stroke-miterlimit="10"><path fill="#FFF" d="M811.2 80.8h-25.6M780.1 80.8h-27.5M747.3 80.8h-14.6M828.5 113.7l-14.4 6.2M828.5 48l-38.6-16.5M785.3 29.5l-23.4-10M757.4 17.5L745 12.2M795 57.9l-24.8-5.4M765.4 51.5l-13.2-2.9"/><g fill="#FFF"><path d="M1043.7 80.8h25.7M1074.9 80.8h27.5M1107.6 80.8h14.7M1026.5 48l38.5-16.5M1069.7 29.5l23.4-10M1059.9 57.9l24.9-5.4M1089.6 51.5l13.2-2.9M1026.5 113.7l38.5 16.5M1069.7 132.2l23.4 10M1097.5 144.1l12.5 5.4M1059.9 103.8l24.9 5.4M1089.6 110.2l13.2 2.9M1043.7 80.8h25.7M1074.9 80.8h27.5M1107.6 80.8h14.7M1026.5 48l38.5-16.5M1069.7 29.5l23.4-10M1097.5 17.5l12.5-5.3M1059.9 57.9l24.9-5.4M1089.6 51.5l13.2-2.9M1069.7 132.2l23.4 10M1097.5 144.1l12.5 5.4M1059.9 103.8l24.9 5.4M1089.6 110.2l13.2 2.9"/></g><circle fill="#EFC223" cx="927.5" cy="78.5" r="76.5"/><path fill="#FFF" d="M773.7 182.1h182.5s4.7-26.7-23.1-19.5c8.1-18.3-21.2-38.4-36-17.5 1.3-17.4-26.9-43.2-54.5-14.4-.2-36.9-70.7-84-110-14.4 0 0-40.1-14.9-40.1 23.6 0 0-14.6-1.3-14.6 21.9h158.8"/></g><g fill="none" stroke-width="5" stroke-linecap="round" stroke-linejoin="round" stroke-miterlimit="10"><g stroke="#050505"><path d="M196.4 58.3s15.5-2.9 16-19.7M228.3 58.3s-15.5-2.9-16-19.7M228.3 58.3s-15.5 2.9-16 19.7M196.4 58.3s15.5 2.9 16 19.7"/></g><g stroke="#000"><path d="M2.5 56.4h57.9M74.4 56.4h37.7M126.1 56.4h23.1M162.6 56.4h14.5"/></g></g></svg>