<?xml version="1.0" encoding="utf-8"?>
<!-- Generator: Adobe Illustrator 24.2.2, SVG Export Plug-In . SVG Version: 6.00 Build 0)  -->
<svg version="1.1" id="Layer_1" xmlns="http://www.w3.org/2000/svg" xmlns:xlink="http://www.w3.org/1999/xlink" x="0px" y="0px"
	 viewBox="0 0 313.6 229.6" style="enable-background:new 0 0 313.6 229.6;" xml:space="preserve">
<style type="text/css">
	.st0{fill:#FFFFFF;stroke:#000000;stroke-width:3;stroke-miterlimit:10;}
	.st1{fill:#FFFFFF;stroke:#000000;stroke-width:3;stroke-linecap:round;stroke-linejoin:round;stroke-miterlimit:10;}
	.st2{fill:none;stroke:#000000;stroke-width:3;stroke-linecap:round;stroke-linejoin:round;stroke-miterlimit:10;}
</style>
<path class="st0" d="M77.7,133.6l62.1-2.1l66.8,12.7c8.1,2.4,16.4-1.1,18.4-7.8l4.6-15.4l4.6-15.4c2-6.7-3-14.2-11.1-16.6
	l-62.8-26.1L109.7,27L77.7,133.6z"/>
<path class="st0" d="M77.7,133.6l62.1-2.1l66.8,12.7c8.1,2.4,16.4-1.1,18.4-7.8l4.6-15.4l4.6-15.4c2-6.7-3-14.2-11.1-16.6
	l-62.8-26.1L109.7,27L77.7,133.6z"/>
<path class="st0" d="M174.2,138.1l32.4,6.2c8.1,2.4,16.4-1.1,18.4-7.8l4.6-15.4l4.6-15.4c2-6.7-3-14.2-11.1-16.6l-28.5-11.8"/>
<path class="st1" d="M121.8,35.3l-29.2,97.2"/>
<path class="st2" d="M209.1,145.3l-42.8,71.4l-15.2-4.6l42.8-134.2 M170.2,150.9l-8.6-2.6l3.1-11.5"/>
<path class="st1" d="M211.2,98l-9.4-2.8 M209.2,104.7l-9.4-2.8 M207.2,111.4l-9.5-2.8 M205.2,118.1l-9.5-2.8 M203.2,124.8l-9.5-2.8
	 M201.2,131.5l-9.5-2.8"/>
<g>
	<path class="st1" d="M95.5,44.6L90,62.9 M80.9,93.5l-5.5,18.3 M51.9,68.1l18.3,5.5 M54.6,94.8l16.8-9 M77.9,64.2l-9.1-16.9"/>
</g>
<path class="st2" d="M95.7,72.3c-4.7-1.4-9.7,1.3-11.1,6c-1.4,4.7,1.3,9.7,6,11.1"/>
<g>
	<path class="st2" d="M30.8,190.1c0,0,8.6-1.6,8.8-10.9 M48.5,190.1c0,0-8.6-1.6-8.8-10.9 M48.5,190.1c0,0-8.6,1.6-8.8,10.9
		 M30.8,190.1c0,0,8.6,1.6,8.8,10.9"/>
</g>
<g>
	<path class="st2" d="M220.8,180.1c0,0,8.6-1.6,8.8-10.9 M238.5,180.1c0,0-8.6-1.6-8.8-10.9 M238.5,180.1c0,0-8.6,1.6-8.8,10.9
		 M220.8,180.1c0,0,8.6,1.6,8.8,10.9"/>
</g>
<g>
	<path class="st2" d="M221.5,27.4c0,0,8.6-1.6,8.8-10.9 M239.2,27.4c0,0-8.6-1.6-8.8-10.9 M239.2,27.4c0,0-8.6,1.6-8.8,10.9
		 M221.5,27.4c0,0,8.6,1.6,8.8,10.9"/>
</g>
<g>
	<path class="st2" d="M105.5,154.4c0,0,4.5-0.9,4.7-5.8 M114.8,154.4c0,0-4.5-0.9-4.6-5.8 M114.8,154.4c0,0-4.5,0.9-4.6,5.7
		 M105.5,154.4c0,0,4.5,0.9,4.7,5.7"/>
</g>
<g>
	<path class="st2" d="M25.5,34.4c0,0,4.5-0.9,4.7-5.8 M34.8,34.4c0,0-4.5-0.9-4.6-5.8 M34.8,34.4c0,0-4.5,0.9-4.6,5.7 M25.5,34.4
		c0,0,4.5,0.9,4.7,5.7"/>
</g>
<g>
	<path class="st2" d="M285.5,64.4c0,0,4.5-0.9,4.7-5.8 M294.8,64.4c0,0-4.5-0.9-4.6-5.8 M294.8,64.4c0,0-4.5,0.9-4.6,5.7
		 M285.5,64.4c0,0,4.5,0.9,4.7,5.7"/>
</g>
<g>
	<path class="st2" d="M275.5,134.4c0,0,4.5-0.9,4.7-5.8 M284.8,134.4c0,0-4.5-0.9-4.6-5.8 M284.8,134.4c0,0-4.5,0.9-4.6,5.7
		 M275.5,134.4c0,0,4.5,0.9,4.7,5.7"/>
</g>
<g>
	<path class="st2" d="M1.5,126.4c0,0,4.5-0.9,4.7-5.8 M10.8,126.4c0,0-4.5-0.9-4.6-5.8 M10.8,126.4c0,0-4.5,0.9-4.6,5.7 M1.5,126.4
		c0,0,4.5,0.9,4.7,5.7"/>
</g>
<path class="st1" d="M121.8,35.3l-29.2,97.2"/>
<path class="st0" d="M176.6,138.6l30,5.7c8.1,2.4,16.4-1.1,18.4-7.8l4.6-15.4l4.6-15.4c2-6.7-3-14.2-11.1-16.6l-26.7-11"/>
<path class="st1" d="M170.2,150.9l-8.6-2.6l3.1-11.5l9.5,2.3l-23.1,73l15.2,5.6l42.8-71.4l-34.9-7.2"/>
<path class="st1" d="M211.2,98l-9.4-2.8 M209.2,104.7l-9.4-2.8 M207.2,111.4l-9.5-2.8 M205.2,118.1l-9.5-2.8 M203.2,124.8l-9.5-2.8
	 M201.2,131.5l-9.5-2.8"/>
<g>
	<path class="st1" d="M95.5,44.6L90,62.9 M80.9,93.5l-5.5,18.3 M51.9,68.1l18.3,5.5 M54.6,94.8l16.8-9 M77.9,64.2l-9.1-16.9"/>
</g>
<path class="st2" d="M95.7,72.3c-4.7-1.4-9.7,1.3-11.1,6c-1.4,4.7,1.3,9.7,6,11.1"/>
<g>
	<path class="st2" d="M30.8,190.1c0,0,8.6-1.6,8.8-10.9 M48.5,190.1c0,0-8.6-1.6-8.8-10.9 M48.5,190.1c0,0-8.6,1.6-8.8,10.9
		 M30.8,190.1c0,0,8.6,1.6,8.8,10.9"/>
</g>
<g>
	<path class="st2" d="M220.8,180.1c0,0,8.6-1.6,8.8-10.9 M238.5,180.1c0,0-8.6-1.6-8.8-10.9 M238.5,180.1c0,0-8.6,1.6-8.8,10.9
		 M220.8,180.1c0,0,8.6,1.6,8.8,10.9"/>
</g>
<g>
	<path class="st2" d="M221.5,27.4c0,0,8.6-1.6,8.8-10.9 M239.2,27.4c0,0-8.6-1.6-8.8-10.9 M239.2,27.4c0,0-8.6,1.6-8.8,10.9
		 M221.5,27.4c0,0,8.6,1.6,8.8,10.9"/>
</g>
<g>
	<path class="st2" d="M105.5,154.4c0,0,4.5-0.9,4.7-5.8 M114.8,154.4c0,0-4.5-0.9-4.6-5.8 M114.8,154.4c0,0-4.5,0.9-4.6,5.7
		 M105.5,154.4c0,0,4.5,0.9,4.7,5.7"/>
</g>
<g>
	<path class="st2" d="M25.5,34.4c0,0,4.5-0.9,4.7-5.8 M34.8,34.4c0,0-4.5-0.9-4.6-5.8 M34.8,34.4c0,0-4.5,0.9-4.6,5.7 M25.5,34.4
		c0,0,4.5,0.9,4.7,5.7"/>
</g>
<g>
	<path class="st2" d="M285.5,64.4c0,0,4.5-0.9,4.7-5.8 M294.8,64.4c0,0-4.5-0.9-4.6-5.8 M294.8,64.4c0,0-4.5,0.9-4.6,5.7
		 M285.5,64.4c0,0,4.5,0.9,4.7,5.7"/>
</g>
<g>
	<path class="st2" d="M275.5,134.4c0,0,4.5-0.9,4.7-5.8 M284.8,134.4c0,0-4.5-0.9-4.6-5.8 M284.8,134.4c0,0-4.5,0.9-4.6,5.7
		 M275.5,134.4c0,0,4.5,0.9,4.7,5.7"/>
</g>
<g>
	<path class="st2" d="M1.5,126.4c0,0,4.5-0.9,4.7-5.8 M10.8,126.4c0,0-4.5-0.9-4.6-5.8 M10.8,126.4c0,0-4.5,0.9-4.6,5.7 M1.5,126.4
		c0,0,4.5,0.9,4.7,5.7"/>
</g>
</svg>
